<svg width="200" height="240" viewBox="0 0 200 240" fill="none" xmlns="http://www.w3.org/2000/svg">
<g style="mix-blend-mode:overlay" opacity="0.5">
<path d="M49.5 -50C49.5 4.95233 4.95233 49.5 -50 49.5C-104.952 49.5 -149.5 4.95233 -149.5 -50C-149.5 -104.952 -104.952 -149.5 -50 -149.5C4.95233 -149.5 49.5 -104.952 49.5 -50ZM-50 50.5C5.50464 50.5 50.5 5.50464 50.5 -50C50.5 -105.505 5.50464 -150.5 -50 -150.5C-105.505 -150.5 -150.5 -105.505 -150.5 -50C-150.5 5.50464 -105.505 50.5 -50 50.5ZM99.5 -50C99.5 32.5666 32.5666 99.5 -50 99.5C-132.567 99.5 -199.5 32.5666 -199.5 -50C-199.5 -132.567 -132.567 -199.5 -50 -199.5C32.5666 -199.5 99.5 -132.567 99.5 -50ZM-50 100.5C33.1189 100.5 100.5 33.1189 100.5 -50C100.5 -133.119 33.1189 -200.5 -50 -200.5C-133.119 -200.5 -200.5 -133.119 -200.5 -50C-200.5 33.1189 -133.119 100.5 -50 100.5ZM149.5 -50C149.5 60.1808 60.1808 149.5 -50 149.5C-160.181 149.5 -249.5 60.1808 -249.5 -50C-249.5 -160.181 -160.181 -249.5 -50 -249.5C60.1808 -249.5 149.5 -160.181 149.5 -50ZM-50 150.5C60.7331 150.5 150.5 60.7331 150.5 -50C150.5 -160.733 60.7331 -250.5 -50 -250.5C-160.733 -250.5 -250.5 -160.733 -250.5 -50C-250.5 60.7331 -160.733 150.5 -50 150.5ZM199.5 -50C199.5 87.795 87.795 199.5 -50 199.5C-187.795 199.5 -299.5 87.795 -299.5 -50C-299.5 -187.795 -187.795 -299.5 -50 -299.5C87.795 -299.5 199.5 -187.795 199.5 -50Z" stroke="white"/>
</g>
</svg>
