<svg width="251" height="246" viewBox="0 0 251 246" fill="none" xmlns="http://www.w3.org/2000/svg">
<g style="mix-blend-mode:overlay" opacity="0.5">
<path d="M100.5 250C100.5 304.952 55.9523 349.5 1 349.5C-53.9523 349.5 -98.5 304.952 -98.5 250C-98.5 195.048 -53.9523 150.5 1 150.5C55.9523 150.5 100.5 195.048 100.5 250ZM1 350.5C56.5046 350.5 101.5 305.505 101.5 250C101.5 194.495 56.5046 149.5 1 149.5C-54.5046 149.5 -99.5 194.495 -99.5 250C-99.5 305.505 -54.5046 350.5 1 350.5ZM150.5 250C150.5 332.567 83.5666 399.5 1 399.5C-81.5666 399.5 -148.5 332.567 -148.5 250C-148.5 167.433 -81.5666 100.5 1 100.5C83.5666 100.5 150.5 167.433 150.5 250ZM1 400.5C84.1189 400.5 151.5 333.119 151.5 250C151.5 166.881 84.1189 99.5 1 99.5C-82.1189 99.5 -149.5 166.881 -149.5 250C-149.5 333.119 -82.1189 400.5 1 400.5ZM200.5 250C200.5 360.181 111.181 449.5 1 449.5C-109.181 449.5 -198.5 360.181 -198.5 250C-198.5 139.819 -109.181 50.5 1 50.5C111.181 50.5 200.5 139.819 200.5 250ZM1 450.5C111.733 450.5 201.5 360.733 201.5 250C201.5 139.267 111.733 49.5 1 49.5C-109.733 49.5 -199.5 139.267 -199.5 250C-199.5 360.733 -109.733 450.5 1 450.5ZM250.5 250C250.5 387.795 138.795 499.5 1 499.5C-136.795 499.5 -248.5 387.795 -248.5 250C-248.5 112.205 -136.795 0.5 1 0.5C138.795 0.5 250.5 112.205 250.5 250Z" stroke="white"/>
</g>
</svg>
