<svg width="225" height="225" viewBox="0 0 225 225" fill="none" xmlns="http://www.w3.org/2000/svg">
<g style="mix-blend-mode:overlay" opacity="0.5">
<path d="M349.5 -25C349.5 29.9523 304.952 74.5 250 74.5C195.048 74.5 150.5 29.9523 150.5 -25C150.5 -79.9523 195.048 -124.5 250 -124.5C304.952 -124.5 349.5 -79.9523 349.5 -25ZM250 75.5C305.505 75.5 350.5 30.5046 350.5 -25C350.5 -80.5046 305.505 -125.5 250 -125.5C194.495 -125.5 149.5 -80.5046 149.5 -25C149.5 30.5046 194.495 75.5 250 75.5ZM399.5 -25C399.5 57.5666 332.567 124.5 250 124.5C167.433 124.5 100.5 57.5666 100.5 -25C100.5 -107.567 167.433 -174.5 250 -174.5C332.567 -174.5 399.5 -107.567 399.5 -25ZM250 125.5C333.119 125.5 400.5 58.1189 400.5 -25C400.5 -108.119 333.119 -175.5 250 -175.5C166.881 -175.5 99.5 -108.119 99.5 -25C99.5 58.1189 166.881 125.5 250 125.5ZM449.5 -25C449.5 85.1808 360.181 174.5 250 174.5C139.819 174.5 50.5 85.1808 50.5 -25C50.5 -135.181 139.819 -224.5 250 -224.5C360.181 -224.5 449.5 -135.181 449.5 -25ZM250 175.5C360.733 175.5 450.5 85.7331 450.5 -25C450.5 -135.733 360.733 -225.5 250 -225.5C139.267 -225.5 49.5 -135.733 49.5 -25C49.5 85.7331 139.267 175.5 250 175.5ZM499.5 -25C499.5 112.795 387.795 224.5 250 224.5C112.205 224.5 0.5 112.795 0.5 -25C0.5 -162.795 112.205 -274.5 250 -274.5C387.795 -274.5 499.5 -162.795 499.5 -25Z" stroke="white"/>
</g>
</svg>
