<svg width="252" height="208" viewBox="0 0 252 208" fill="none" xmlns="http://www.w3.org/2000/svg">
<g style="mix-blend-mode:overlay" opacity="0.5">
<path d="M101.5 -42C101.5 12.9523 56.9523 57.5 2 57.5C-52.9523 57.5 -97.5 12.9523 -97.5 -42C-97.5 -96.9523 -52.9523 -141.5 2 -141.5C56.9523 -141.5 101.5 -96.9523 101.5 -42ZM2 58.5C57.5046 58.5 102.5 13.5046 102.5 -42C102.5 -97.5046 57.5046 -142.5 2 -142.5C-53.5046 -142.5 -98.5 -97.5046 -98.5 -42C-98.5 13.5046 -53.5046 58.5 2 58.5ZM151.5 -42C151.5 40.5666 84.5666 107.5 2 107.5C-80.5666 107.5 -147.5 40.5666 -147.5 -42C-147.5 -124.567 -80.5666 -191.5 2 -191.5C84.5666 -191.5 151.5 -124.567 151.5 -42ZM2 108.5C85.1189 108.5 152.5 41.1189 152.5 -42C152.5 -125.119 85.1189 -192.5 2 -192.5C-81.1189 -192.5 -148.5 -125.119 -148.5 -42C-148.5 41.1189 -81.1189 108.5 2 108.5ZM201.5 -42C201.5 68.1808 112.181 157.5 2 157.5C-108.181 157.5 -197.5 68.1808 -197.5 -42C-197.5 -152.181 -108.181 -241.5 2 -241.5C112.181 -241.5 201.5 -152.181 201.5 -42ZM2 158.5C112.733 158.5 202.5 68.7331 202.5 -42C202.5 -152.733 112.733 -242.5 2 -242.5C-108.733 -242.5 -198.5 -152.733 -198.5 -42C-198.5 68.7331 -108.733 158.5 2 158.5ZM251.5 -42C251.5 95.795 139.795 207.5 2 207.5C-135.795 207.5 -247.5 95.795 -247.5 -42C-247.5 -179.795 -135.795 -291.5 2 -291.5C139.795 -291.5 251.5 -179.795 251.5 -42Z" stroke="white"/>
</g>
</svg>
