<svg width="227" height="225" viewBox="0 0 227 225" fill="none" xmlns="http://www.w3.org/2000/svg">
<g style="mix-blend-mode:overlay" opacity="0.5">
<path d="M76.5 -25C76.5 29.9523 31.9523 74.5 -23 74.5C-77.9523 74.5 -122.5 29.9523 -122.5 -25C-122.5 -79.9523 -77.9523 -124.5 -23 -124.5C31.9523 -124.5 76.5 -79.9523 76.5 -25ZM-23 75.5C32.5046 75.5 77.5 30.5046 77.5 -25C77.5 -80.5046 32.5046 -125.5 -23 -125.5C-78.5046 -125.5 -123.5 -80.5046 -123.5 -25C-123.5 30.5046 -78.5046 75.5 -23 75.5ZM126.5 -25C126.5 57.5666 59.5666 124.5 -23 124.5C-105.567 124.5 -172.5 57.5666 -172.5 -25C-172.5 -107.567 -105.567 -174.5 -23 -174.5C59.5666 -174.5 126.5 -107.567 126.5 -25ZM-23 125.5C60.1189 125.5 127.5 58.1189 127.5 -25C127.5 -108.119 60.1189 -175.5 -23 -175.5C-106.119 -175.5 -173.5 -108.119 -173.5 -25C-173.5 58.1189 -106.119 125.5 -23 125.5ZM176.5 -25C176.5 85.1808 87.1808 174.5 -23 174.5C-133.181 174.5 -222.5 85.1808 -222.5 -25C-222.5 -135.181 -133.181 -224.5 -23 -224.5C87.1808 -224.5 176.5 -135.181 176.5 -25ZM-23 175.5C87.7331 175.5 177.5 85.7331 177.5 -25C177.5 -135.733 87.7331 -225.5 -23 -225.5C-133.733 -225.5 -223.5 -135.733 -223.5 -25C-223.5 85.7331 -133.733 175.5 -23 175.5ZM226.5 -25C226.5 112.795 114.795 224.5 -23 224.5C-160.795 224.5 -272.5 112.795 -272.5 -25C-272.5 -162.795 -160.795 -274.5 -23 -274.5C114.795 -274.5 226.5 -162.795 226.5 -25Z" stroke="white"/>
</g>
</svg>
