<svg width="501" height="176" viewBox="0 0 501 176" fill="none" xmlns="http://www.w3.org/2000/svg">
<path opacity="0.1" d="M350.167 -74C350.167 -19.0477 305.619 25.5 250.667 25.5C195.715 25.5 151.167 -19.0477 151.167 -74C151.167 -128.952 195.715 -173.5 250.667 -173.5C305.619 -173.5 350.167 -128.952 350.167 -74ZM250.667 26.5C306.172 26.5 351.167 -18.4954 351.167 -74C351.167 -129.505 306.172 -174.5 250.667 -174.5C195.162 -174.5 150.167 -129.505 150.167 -74C150.167 -18.4954 195.162 26.5 250.667 26.5ZM400.167 -74C400.167 8.56656 333.234 75.5 250.667 75.5C168.1 75.5 101.167 8.56656 101.167 -74C101.167 -156.567 168.1 -223.5 250.667 -223.5C333.234 -223.5 400.167 -156.567 400.167 -74ZM250.667 76.5C333.786 76.5 401.167 9.11887 401.167 -74C401.167 -157.119 333.786 -224.5 250.667 -224.5C167.548 -224.5 100.167 -157.119 100.167 -74C100.167 9.11887 167.548 76.5 250.667 76.5ZM450.167 -74C450.167 36.1808 360.848 125.5 250.667 125.5C140.486 125.5 51.167 36.1808 51.167 -74C51.167 -184.181 140.486 -273.5 250.667 -273.5C360.848 -273.5 450.167 -184.181 450.167 -74ZM250.667 126.5C361.4 126.5 451.167 36.7331 451.167 -74C451.167 -184.733 361.4 -274.5 250.667 -274.5C139.934 -274.5 50.167 -184.733 50.167 -74C50.167 36.7331 139.934 126.5 250.667 126.5ZM500.167 -74C500.167 63.795 388.462 175.5 250.667 175.5C112.872 175.5 1.16699 63.795 1.16699 -74C1.16699 -211.795 112.872 -323.5 250.667 -323.5C388.462 -323.5 500.167 -211.795 500.167 -74Z" stroke="white"/>
</svg>
