<svg width="360" height="176" viewBox="0 0 360 176" fill="none" xmlns="http://www.w3.org/2000/svg">
<path opacity="0.1" d="M295.167 -74C295.167 -19.0477 250.619 25.5 195.667 25.5C140.715 25.5 96.167 -19.0477 96.167 -74C96.167 -128.952 140.715 -173.5 195.667 -173.5C250.619 -173.5 295.167 -128.952 295.167 -74ZM195.667 26.5C251.172 26.5 296.167 -18.4954 296.167 -74C296.167 -129.505 251.172 -174.5 195.667 -174.5C140.162 -174.5 95.167 -129.505 95.167 -74C95.167 -18.4954 140.162 26.5 195.667 26.5ZM345.167 -74C345.167 8.56656 278.234 75.5 195.667 75.5C113.1 75.5 46.167 8.56656 46.167 -74C46.167 -156.567 113.1 -223.5 195.667 -223.5C278.234 -223.5 345.167 -156.567 345.167 -74ZM195.667 76.5C278.786 76.5 346.167 9.11887 346.167 -74C346.167 -157.119 278.786 -224.5 195.667 -224.5C112.548 -224.5 45.167 -157.119 45.167 -74C45.167 9.11887 112.548 76.5 195.667 76.5ZM395.167 -74C395.167 36.1808 305.848 125.5 195.667 125.5C85.4862 125.5 -3.83301 36.1808 -3.83301 -74C-3.83301 -184.181 85.4862 -273.5 195.667 -273.5C305.848 -273.5 395.167 -184.181 395.167 -74ZM195.667 126.5C306.4 126.5 396.167 36.7331 396.167 -74C396.167 -184.733 306.4 -274.5 195.667 -274.5C84.9339 -274.5 -4.83301 -184.733 -4.83301 -74C-4.83301 36.7331 84.9339 126.5 195.667 126.5ZM445.167 -74C445.167 63.795 333.462 175.5 195.667 175.5C57.872 175.5 -53.833 63.795 -53.833 -74C-53.833 -211.795 57.872 -323.5 195.667 -323.5C333.462 -323.5 445.167 -211.795 445.167 -74Z" stroke="white"/>
</svg>
