<svg width="218" height="250" viewBox="0 0 218 250" fill="none" xmlns="http://www.w3.org/2000/svg">
<path opacity="0.1" d="M349.5 250C349.5 304.952 304.952 349.5 250 349.5C195.048 349.5 150.5 304.952 150.5 250C150.5 195.048 195.048 150.5 250 150.5C304.952 150.5 349.5 195.048 349.5 250ZM250 350.5C305.505 350.5 350.5 305.505 350.5 250C350.5 194.495 305.505 149.5 250 149.5C194.495 149.5 149.5 194.495 149.5 250C149.5 305.505 194.495 350.5 250 350.5ZM399.5 250C399.5 332.567 332.567 399.5 250 399.5C167.433 399.5 100.5 332.567 100.5 250C100.5 167.433 167.433 100.5 250 100.5C332.567 100.5 399.5 167.433 399.5 250ZM250 400.5C333.119 400.5 400.5 333.119 400.5 250C400.5 166.881 333.119 99.5 250 99.5C166.881 99.5 99.5 166.881 99.5 250C99.5 333.119 166.881 400.5 250 400.5ZM449.5 250C449.5 360.181 360.181 449.5 250 449.5C139.819 449.5 50.5 360.181 50.5 250C50.5 139.819 139.819 50.5 250 50.5C360.181 50.5 449.5 139.819 449.5 250ZM250 450.5C360.733 450.5 450.5 360.733 450.5 250C450.5 139.267 360.733 49.5 250 49.5C139.267 49.5 49.5 139.267 49.5 250C49.5 360.733 139.267 450.5 250 450.5ZM499.5 250C499.5 387.795 387.795 499.5 250 499.5C112.205 499.5 0.5 387.795 0.5 250C0.5 112.205 112.205 0.5 250 0.5C387.795 0.5 499.5 112.205 499.5 250Z" stroke="white"/>
</svg>
