<svg width="236" height="250" viewBox="0 0 236 250" fill="none" xmlns="http://www.w3.org/2000/svg">
<path opacity="0.1" d="M85.5 250C85.5 304.952 40.9523 349.5 -14 349.5C-68.9523 349.5 -113.5 304.952 -113.5 250C-113.5 195.048 -68.9523 150.5 -14 150.5C40.9523 150.5 85.5 195.048 85.5 250ZM-14 350.5C41.5046 350.5 86.5 305.505 86.5 250C86.5 194.495 41.5046 149.5 -14 149.5C-69.5046 149.5 -114.5 194.495 -114.5 250C-114.5 305.505 -69.5046 350.5 -14 350.5ZM135.5 250C135.5 332.567 68.5666 399.5 -14 399.5C-96.5666 399.5 -163.5 332.567 -163.5 250C-163.5 167.433 -96.5666 100.5 -14 100.5C68.5666 100.5 135.5 167.433 135.5 250ZM-14 400.5C69.1189 400.5 136.5 333.119 136.5 250C136.5 166.881 69.1189 99.5 -14 99.5C-97.1189 99.5 -164.5 166.881 -164.5 250C-164.5 333.119 -97.1189 400.5 -14 400.5ZM185.5 250C185.5 360.181 96.1808 449.5 -14 449.5C-124.181 449.5 -213.5 360.181 -213.5 250C-213.5 139.819 -124.181 50.5 -14 50.5C96.1808 50.5 185.5 139.819 185.5 250ZM-14 450.5C96.7331 450.5 186.5 360.733 186.5 250C186.5 139.267 96.7331 49.5 -14 49.5C-124.733 49.5 -214.5 139.267 -214.5 250C-214.5 360.733 -124.733 450.5 -14 450.5ZM235.5 250C235.5 387.795 123.795 499.5 -14 499.5C-151.795 499.5 -263.5 387.795 -263.5 250C-263.5 112.205 -151.795 0.5 -14 0.5C123.795 0.5 235.5 112.205 235.5 250Z" stroke="white"/>
</svg>
