<svg width="48" height="48" viewBox="0 0 48 48" fill="none" xmlns="http://www.w3.org/2000/svg">
<path d="M24 0.533325C11.0395 0.533325 0.533325 11.0395 0.533325 24C0.533325 36.9604 11.0395 47.4667 24 47.4667C36.9604 47.4667 47.4667 36.9604 47.4667 24C47.4667 11.0395 36.9604 0.533325 24 0.533325ZM18.2555 33.7264H13.5035V18.434H18.2555V33.7264ZM15.8502 16.5567C14.3493 16.5567 13.3789 15.4933 13.3789 14.1782C13.3789 12.8362 14.3787 11.8047 15.9113 11.8047C17.444 11.8047 18.3827 12.8362 18.412 14.1782C18.412 15.4933 17.444 16.5567 15.8502 16.5567ZM35.6111 33.7264H30.8591V25.2515C30.8591 23.2789 30.1698 21.9393 28.4513 21.9393C27.1387 21.9393 26.3589 22.8462 26.0142 23.7189C25.8871 24.0293 25.8553 24.4693 25.8553 24.9069V33.724H21.1009V23.3107C21.1009 21.4015 21.0398 19.8053 20.9762 18.4315H25.1049L25.3224 20.5558H25.4178C26.0435 19.5584 27.5762 18.0869 30.1404 18.0869C33.2669 18.0869 35.6111 20.1818 35.6111 24.6844V33.7264Z" fill="#0274B3"/>
<path d="M18.2555 33.7264H13.5035V18.434H18.2555V33.7264Z" fill="white"/>
<path d="M15.8502 16.5567C14.3493 16.5567 13.3789 15.4933 13.3789 14.1782C13.3789 12.8362 14.3787 11.8047 15.9113 11.8047C17.444 11.8047 18.3827 12.8362 18.412 14.1782C18.412 15.4933 17.444 16.5567 15.8502 16.5567Z" fill="white"/>
<path d="M35.6111 33.7264H30.8591V25.2515C30.8591 23.2789 30.1698 21.9393 28.4513 21.9393C27.1387 21.9393 26.3589 22.8462 26.0142 23.7189C25.8871 24.0293 25.8553 24.4693 25.8553 24.9069V33.724H21.1009V23.3107C21.1009 21.4015 21.0398 19.8053 20.9762 18.4315H25.1049L25.3224 20.5558H25.4178C26.0435 19.5584 27.5762 18.0869 30.1404 18.0869C33.2669 18.0869 35.6111 20.1818 35.6111 24.6844V33.7264Z" fill="white"/>
</svg>
