<svg width="30" height="44" viewBox="0 0 30 44" fill="none" xmlns="http://www.w3.org/2000/svg">
<g clip-path="url(#clip0_3436_1775)">
<path d="M7.8001 43.3333C11.7745 43.3333 15.0001 40.1475 15.0001 36.2222V29.1111H7.8001C3.8257 29.1111 0.600098 32.2969 0.600098 36.2222C0.600098 40.1475 3.8257 43.3333 7.8001 43.3333Z" fill="#0ACF83"/>
<path d="M0.600098 21.9999C0.600098 18.0746 3.8257 14.8888 7.8001 14.8888H15.0001V29.111H7.8001C3.8257 29.111 0.600098 25.9253 0.600098 21.9999Z" fill="#A259FF"/>
<path d="M0.599609 7.77786C0.599609 3.85253 3.82521 0.666748 7.79961 0.666748H14.9996V14.889H7.79961C3.82521 14.889 0.599609 11.7032 0.599609 7.77786Z" fill="#F24E1E"/>
<path d="M15.0015 0.66658H22.2015C26.1759 0.66658 29.4015 3.85236 29.4015 7.77769C29.4015 11.703 26.1759 14.8888 22.2015 14.8888H15.0015V0.66658Z" fill="#FF7262"/>
<path d="M29.4015 22C29.4015 25.9253 26.1759 29.1111 22.2015 29.1111C18.2271 29.1111 15.0015 25.9253 15.0015 22C15.0015 18.0746 18.2271 14.8889 22.2015 14.8889C26.1759 14.8889 29.4015 18.0746 29.4015 22Z" fill="#1ABCFE"/>
</g>
<defs>
<clipPath id="clip0_3436_1775">
<rect width="28.8" height="42.6667" fill="white" transform="translate(0.600098 0.666672)"/>
</clipPath>
</defs>
</svg>
