<svg width="44" height="44" viewBox="0 0 44 44" fill="none" xmlns="http://www.w3.org/2000/svg">
<g clip-path="url(#clip0_3306_214)">
<path d="M9.75169 27.573C9.75169 30.0164 7.75903 32.012 5.31536 32.012C2.87203 32.012 0.876694 30.0164 0.876694 27.573C0.876694 25.1297 2.87236 23.134 5.31569 23.134H9.75203L9.75169 27.573ZM11.988 27.573C11.988 25.1297 13.9837 23.134 16.427 23.134C18.8704 23.134 20.866 25.1294 20.866 27.573V38.6847C20.866 41.128 18.8707 43.1237 16.427 43.1237C13.9837 43.1237 11.988 41.128 11.988 38.6847V27.573Z" fill="#DE1C59"/>
<path d="M16.427 9.75171C13.9837 9.75171 11.988 7.75904 11.988 5.31537C11.988 2.87204 13.9837 0.876709 16.427 0.876709C18.8704 0.876709 20.866 2.87238 20.866 5.31571V9.75204L16.427 9.75171ZM16.427 11.988C18.8704 11.988 20.866 13.9837 20.866 16.427C20.866 18.8704 18.8707 20.866 16.427 20.866H5.31536C2.87203 20.866 0.876694 18.8707 0.876694 16.427C0.876694 13.9837 2.87236 11.988 5.31569 11.988H16.427Z" fill="#35C5F0"/>
<path d="M34.2481 16.427C34.2481 13.9837 36.2407 11.988 38.6844 11.988C41.1277 11.988 43.1234 13.9837 43.1234 16.427C43.1234 18.8704 41.1277 20.866 38.6844 20.866H34.2481V16.427ZM32.0117 16.427C32.0117 18.8704 30.0161 20.866 27.5727 20.866C25.1294 20.866 23.1337 18.8707 23.1337 16.427V5.31537C23.1337 2.87204 25.1291 0.876709 27.5727 0.876709C30.0161 0.876709 32.0117 2.87238 32.0117 5.31571V16.427Z" fill="#2EB57D"/>
<path d="M27.5727 34.2484C30.0161 34.2484 32.0117 36.241 32.0117 38.6847C32.0117 41.128 30.0161 43.1237 27.5727 43.1237C25.1294 43.1237 23.1337 41.128 23.1337 38.6847V34.2484H27.5727ZM27.5727 32.012C25.1294 32.012 23.1337 30.0164 23.1337 27.573C23.1337 25.1297 25.1291 23.134 27.5727 23.134H38.6844C41.1277 23.134 43.1234 25.1294 43.1234 27.573C43.1234 30.0164 41.1277 32.012 38.6844 32.012H27.5727Z" fill="#EBB02E"/>
</g>
<defs>
<clipPath id="clip0_3306_214">
<rect width="42.6667" height="42.6667" fill="white" transform="translate(0.666672 0.666687)"/>
</clipPath>
</defs>
</svg>
