<svg width="20" height="20" viewBox="0 0 20 20" fill="none" xmlns="http://www.w3.org/2000/svg">
<path fill-rule="evenodd" clip-rule="evenodd" d="M6.80006 0H13.2C15.1873 0 16.8 1.61271 16.8 3.60003C16.8 4.99269 16.008 6.20134 14.8502 6.79997C16.008 7.39862 16.8 8.60732 16.8 9.99998C16.8 11.9873 15.1873 13.6 13.2 13.6C12.0695 13.6 11.0603 13.0782 10.4001 12.2624V16.4C10.4001 18.3873 8.78739 20 6.80006 20C4.81274 20 3.20001 18.3873 3.20001 16.4C3.20001 15.0073 3.992 13.7986 5.14989 13.2C3.992 12.6013 3.20001 11.3926 3.20001 9.99998C3.20001 8.60732 3.99199 7.39862 5.14987 6.79997C3.992 6.20134 3.20001 4.99269 3.20001 3.60003C3.20001 1.61271 4.81274 0 6.80006 0ZM4.00001 3.60003C4.00001 2.05454 5.25456 0.8 6.80006 0.8H9.59991V6.39995H6.80006L6.79138 6.39996C5.24985 6.39527 4.00001 5.1426 4.00001 3.60003ZM9.60011 9.9619C9.59998 9.97458 9.59991 9.98727 9.59991 9.99998C9.59991 10.0127 9.59998 10.0254 9.60011 10.0381V12.7999H6.80004C5.25456 12.8 4.00001 11.5455 4.00001 9.99998C4.00001 8.45736 5.2499 7.20461 6.79146 7.19996L6.80006 7.19997H9.59991L9.60011 9.9619ZM10.4001 10.0335V9.96644C10.4181 8.4402 11.6594 7.20612 13.1885 7.19997H13.2C13.2028 7.19997 13.2057 7.19997 13.2086 7.19996C14.7501 7.20461 16 8.45736 16 9.99998C16 11.5455 14.7455 12.8 13.2 12.8C11.6657 12.8 10.4181 11.5636 10.4001 10.0335ZM10.9377 7.19997C10.7402 7.35978 10.5599 7.54005 10.4001 7.73755V7.19997H10.9377ZM13.2086 6.39996C13.2057 6.39995 13.2029 6.39995 13.2 6.39995C13.1956 6.39995 13.1912 6.39996 13.1868 6.39997H10.4001V0.8H13.2C14.7455 0.8 16 2.05454 16 3.60003C16 5.1426 14.7502 6.39527 13.2086 6.39996ZM6.80006 13.5999C5.25456 13.5999 4.00001 14.8545 4.00001 16.4C4.00001 17.9455 5.25456 19.2 6.80006 19.2C8.34556 19.2 9.60011 17.9455 9.60011 16.4V13.5999H6.80006Z" fill="#2B2B2B"/>
</svg>
