<svg width="52" height="52" viewBox="0 0 52 52" fill="none" xmlns="http://www.w3.org/2000/svg">
<path d="M36.774 43.6638C34.6833 45.6904 32.4006 45.3704 30.2033 44.4104C27.8779 43.4291 25.7446 43.3864 23.2912 44.4104C20.2192 45.7331 18.5979 45.3491 16.7632 43.6638C6.35246 32.933 7.88847 16.5916 19.7072 15.9943C22.5872 16.1436 24.5926 17.5729 26.2779 17.7009C28.7952 17.1889 31.2059 15.7169 33.8939 15.9089C37.1153 16.1649 39.5473 17.4449 41.1473 19.749C34.4913 23.7383 36.07 32.5064 42.1713 34.9597C40.9553 38.1597 39.3766 41.3384 36.7526 43.6851L36.774 43.6638ZM26.0646 15.8663C25.7446 11.1089 29.6059 7.18356 34.0433 6.79956C34.6619 12.3036 29.0512 16.3996 26.0646 15.8663Z" fill="black"/>
</svg>
